# xmcd
#
# Track frame offsets:
#	150
#	15865
#	29490
#	40942
#	54428
#	69809
#	81317
#	93940
#	107955
#	121748
#	135958
#	148776
#	162039
#	176361
#	190265
#	205256
#	218770
#	232395
#	248779
#	261848
#	276281
#	291439
#	305817
#	319610
#	333347
#
# Disc length: 4624 seconds
#
# Revision: 5
# Processed by: cddbd v1.5.2PL0 Copyright (c) Steve Scherf et al.
# Submitted via: EZCDAudioConverter 7.0.9.1
#
DISCID=69120e19
DTITLE=Various Artist - Triomphes du Blues 16, Blues Guitarists
DYEAR=2001
DGENRE=Blues
TTITLE0=Bumble Bee Slim - No woman no nickel - 1931
TTITLE1=Joe McCoy - Going back home blues - 1934
TTITLE2=Lil Son Jackson - Peace breakin' people - 1950
TTITLE3=Texas Alexander - No more woman blues - 1928
TTITLE4=Buddy Moss - Cold country blues - 1933
TTITLE5=Dan Pickett - Something's gone wrong - 1949
TTITLE6=Tommy McClennan - Bottle it up and go - 1939
TTITLE7=Bo Carter - Banana in your fruit basket - 1931
TTITLE8=Pick Anderson and Simmie Dooley - C.C. and O. Blues - 1928
TTITLE9=Garfield Akers - Dough Roller blues - 1930
TTITLE10=Henry Thomas - Run Mollie run - 1927
TTITLE11=Skip James - Devil got my woman - 1931
TTITLE12=Hi Henry Brown - Titanic blues - 1932
TTITLE13=Robert Wilkins - I'll go with her - 1930
TTITLE14=Rube Lacy - Mississippi jail house Groan - 1928
TTITLE15=Kid Price Moore - South bound blues - 1936
TTITLE16=Sam Collins - Lonesome road - 1931
TTITLE17=Tommy Johnson - Canned heat blue - 1928
TTITLE18=Mississippi John Hurt - Ain't no tellin' - 1928
TTITLE19=Blind Willie McTell - Southern can is mine - 1931
TTITLE20=Frank Stokes - It won't be long now - 1928
TTITLE21=Jim Jackson - This morning she was gone - 1928
TTITLE22=Furry Lewis - Dry land blues - 1928
TTITLE23=Robert Lockwood - Little boy blue - 1941
TTITLE24=Johnny Shines - Delta pine blues - 1946
EXTD=
EXTT0=
EXTT1=
EXTT2=
EXTT3=
EXTT4=
EXTT5=
EXTT6=
EXTT7=
EXTT8=
EXTT9=
EXTT10=
EXTT11=
EXTT12=
EXTT13=
EXTT14=
EXTT15=
EXTT16=
EXTT17=
EXTT18=
EXTT19=
EXTT20=
EXTT21=
EXTT22=
EXTT23=
EXTT24=
PLAYORDER=
